<svg width="482" height="58" viewBox="0 0 482 58" fill="none" xmlns="http://www.w3.org/2000/svg">
<path d="M109 37.8576C109 35.3666 109.496 33.1175 110.487 31.1102C111.479 29.1029 112.906 27.5309 114.768 26.3942C116.63 25.2576 118.819 24.6893 121.334 24.6893C123.825 24.6893 126.002 25.2576 127.864 26.3942C129.726 27.5309 131.141 29.1029 132.108 31.1102C133.1 33.1175 133.595 35.3666 133.595 37.8576C133.595 40.3728 133.1 42.634 132.108 44.6413C131.141 46.6244 129.726 48.1964 127.864 49.3572C126.026 50.4939 123.849 51.0622 121.334 51.0622C118.819 51.0622 116.63 50.4939 114.768 49.3572C112.906 48.1964 111.479 46.6244 110.487 44.6413C109.496 42.634 109 40.3728 109 37.8576ZM112.954 37.8576C112.954 40.8323 113.668 43.2144 115.094 45.0041C116.521 46.7695 118.601 47.6522 121.334 47.6522C124.067 47.6522 126.135 46.7695 127.537 45.0041C128.964 43.2386 129.678 40.8565 129.678 37.8576C129.678 34.8829 128.964 32.5129 127.537 30.7474C126.11 28.982 124.043 28.0992 121.334 28.0992C118.601 28.0992 116.521 28.982 115.094 30.7474C113.668 32.5129 112.954 34.8829 112.954 37.8576Z" fill="#808CFF"/>
<path d="M136.999 32.5612H140.735V37.386C141.219 35.7657 142.089 34.496 143.347 33.577C144.629 32.658 146.237 32.1985 148.172 32.1985C150.3 32.1985 151.957 32.8756 153.142 34.23C154.351 35.5843 154.955 37.519 154.955 40.0342V50.6632H151.183V40.4695C151.183 38.6799 150.844 37.3981 150.167 36.6242C149.49 35.8261 148.389 35.4271 146.866 35.4271C144.955 35.4271 143.456 36.1163 142.368 37.4948C141.279 38.8492 140.735 40.7476 140.735 43.1902V50.6632H136.999V32.5612Z" fill="#808CFF"/>
<path d="M159.211 24H162.947V36.8056C163.552 35.4271 164.495 34.3146 165.777 33.4682C167.059 32.6217 168.643 32.1985 170.529 32.1985C172.27 32.1985 173.77 32.6096 175.027 33.4319C176.309 34.23 177.289 35.3424 177.966 36.7693C178.643 38.172 178.982 39.7803 178.982 41.5941C178.982 43.4079 178.643 45.0282 177.966 46.4551C177.289 47.882 176.309 49.0066 175.027 49.8288C173.77 50.6269 172.27 51.0259 170.529 51.0259C168.667 51.0259 167.095 50.6148 165.813 49.7925C164.531 48.9703 163.576 47.8457 162.947 46.4188V50.6632H159.211V24ZM163.02 41.5941C163.02 43.6014 163.6 45.1371 164.761 46.2012C165.946 47.2653 167.446 47.7973 169.259 47.7973C171.073 47.7973 172.524 47.2774 173.613 46.2375C174.701 45.1733 175.245 43.6256 175.245 41.5941C175.245 39.5626 174.701 38.0269 173.613 36.987C172.524 35.947 171.073 35.4271 169.259 35.4271C167.446 35.4271 165.946 35.9712 164.761 37.0595C163.6 38.1236 163.02 39.6351 163.02 41.5941Z" fill="#808CFF"/>
<path d="M182.325 41.5941C182.325 39.7561 182.737 38.1357 183.559 36.733C184.381 35.3062 185.53 34.1937 187.005 33.3956C188.48 32.5975 190.173 32.1985 192.084 32.1985C193.97 32.1985 195.651 32.5975 197.126 33.3956C198.601 34.1937 199.75 35.3062 200.573 36.733C201.395 38.1357 201.806 39.7561 201.806 41.5941C201.806 43.4321 201.395 45.0645 200.573 46.4914C199.75 47.9183 198.601 49.0307 197.126 49.8288C195.651 50.6269 193.97 51.0259 192.084 51.0259C190.173 51.0259 188.48 50.6269 187.005 49.8288C185.53 49.0307 184.381 47.9183 183.559 46.4914C182.737 45.0645 182.325 43.4321 182.325 41.5941ZM186.062 41.5941C186.062 43.4079 186.594 44.8952 187.658 46.0561C188.746 47.2169 190.222 47.7973 192.084 47.7973C193.946 47.7973 195.397 47.2169 196.437 46.0561C197.501 44.8952 198.033 43.4079 198.033 41.5941C198.033 39.8044 197.501 38.3292 196.437 37.1683C195.397 36.0075 193.946 35.4271 192.084 35.4271C190.222 35.4271 188.746 36.0075 187.658 37.1683C186.594 38.3292 186.062 39.8044 186.062 41.5941Z" fill="#808CFF"/>
<path d="M205.142 45.657C205.142 44.1334 205.637 42.9242 206.629 42.0294C207.621 41.1104 209.217 40.5421 211.417 40.3244L218.237 39.6714C218.165 38.1236 217.766 36.9991 217.04 36.2977C216.315 35.5722 215.166 35.2094 213.594 35.2094C212.312 35.2094 211.284 35.5238 210.511 36.1526C209.737 36.7814 209.289 37.7609 209.168 39.091H205.541C205.734 36.9628 206.544 35.282 207.971 34.0486C209.422 32.8152 211.333 32.1985 213.703 32.1985C216.315 32.1985 218.346 32.924 219.797 34.3751C221.248 35.8019 221.974 37.785 221.974 40.3244V47.4346H224.622V50.6632H221.176C220.45 50.6632 219.882 50.4697 219.471 50.0828C219.06 49.6716 218.854 49.1033 218.854 48.3778V46.1649C218.395 47.616 217.56 48.7889 216.351 49.6837C215.142 50.5785 213.473 51.0259 211.345 51.0259C208.975 51.0259 207.342 50.4697 206.448 49.3572C205.577 48.2448 205.142 47.0114 205.142 45.657ZM208.842 45.1492C208.842 46.0682 209.12 46.7695 209.676 47.2532C210.257 47.7369 211.043 47.9787 212.034 47.9787C213.243 47.9787 214.32 47.7248 215.263 47.2169C216.206 46.7091 216.931 46.0077 217.439 45.1129C217.971 44.2181 218.237 43.2023 218.237 42.0657L212.07 42.7549C210.958 42.8758 210.136 43.1177 209.604 43.4804C209.096 43.819 208.842 44.3753 208.842 45.1492Z" fill="#808CFF"/>
<path d="M227.868 35.1731C227.868 33.4319 228.763 32.5612 230.552 32.5612H241.109V35.7898H231.604V50.6632H227.868V35.1731Z" fill="#808CFF"/>
<path d="M250.898 51.0259C249.157 51.0259 247.645 50.6269 246.363 49.8288C245.106 49.0066 244.138 47.882 243.461 46.4551C242.784 45.0282 242.445 43.4079 242.445 41.5941C242.445 39.7803 242.784 38.172 243.461 36.7693C244.138 35.3424 245.106 34.23 246.363 33.4319C247.645 32.6096 249.157 32.1985 250.898 32.1985C252.784 32.1985 254.356 32.6217 255.614 33.4682C256.896 34.2904 257.851 35.3908 258.48 36.7693V24H262.216V50.6632H258.48V46.4551C257.827 47.882 256.859 49.0066 255.577 49.8288C254.32 50.6269 252.76 51.0259 250.898 51.0259ZM246.182 41.5941C246.182 43.6256 246.738 45.1733 247.851 46.2375C248.963 47.2774 250.402 47.7973 252.168 47.7973C253.957 47.7973 255.444 47.2653 256.63 46.2012C257.815 45.1129 258.407 43.5772 258.407 41.5941C258.407 39.6351 257.815 38.1236 256.63 37.0595C255.444 35.9712 253.957 35.4271 252.168 35.4271C250.402 35.4271 248.963 35.9591 247.851 37.0232C246.738 38.0632 246.182 39.5868 246.182 41.5941Z" fill="#808CFF"/>
<path d="M266.042 47.4346H271.084V35.7898H267.203V32.5612H272.281C273.781 32.5612 274.531 33.323 274.531 34.8467V47.4346H279.573V50.6632H266.042V47.4346ZM272.39 29.768C271.592 29.768 270.939 29.5382 270.431 29.0787C269.923 28.595 269.669 27.9662 269.669 27.1923C269.669 26.4426 269.923 25.838 270.431 25.3785C270.939 24.8948 271.592 24.653 272.39 24.653C273.212 24.653 273.89 24.8948 274.422 25.3785C274.954 25.838 275.22 26.4426 275.22 27.1923C275.22 27.9662 274.954 28.595 274.422 29.0787C273.89 29.5382 273.212 29.768 272.39 29.768Z" fill="#808CFF"/>
<path d="M283.096 32.5612H286.833V37.386C287.316 35.7657 288.187 34.496 289.445 33.577C290.726 32.658 292.335 32.1985 294.269 32.1985C296.398 32.1985 298.054 32.8756 299.239 34.23C300.449 35.5843 301.053 37.519 301.053 40.0342V50.6632H297.28V40.4695C297.28 38.6799 296.942 37.3981 296.265 36.6242C295.587 35.8261 294.487 35.4271 292.963 35.4271C291.053 35.4271 289.553 36.1163 288.465 37.4948C287.377 38.8492 286.833 40.7476 286.833 43.1902V50.6632H283.096V32.5612Z" fill="#808CFF"/>
<path d="M313.283 51.0259C311.542 51.0259 310.031 50.6269 308.749 49.8288C307.491 49.0066 306.524 47.882 305.847 46.4551C305.17 45.0282 304.831 43.4079 304.831 41.5941C304.831 39.7803 305.17 38.172 305.847 36.7693C306.524 35.3424 307.491 34.23 308.749 33.4319C310.031 32.6096 311.542 32.1985 313.283 32.1985C315.17 32.1985 316.742 32.6217 317.999 33.4682C319.281 34.2904 320.236 35.3908 320.865 36.7693V32.5612H324.602V55.4517C324.602 57.0478 323.719 57.8459 321.953 57.8459H307.878V54.6173H320.865V46.4551C320.212 47.882 319.245 49.0066 317.963 49.8288C316.705 50.6269 315.146 51.0259 313.283 51.0259ZM308.567 41.5941C308.567 43.6256 309.112 45.1733 310.2 46.2375C311.288 47.2774 312.739 47.7973 314.553 47.7973C316.367 47.7973 317.854 47.2653 319.015 46.2012C320.2 45.1371 320.793 43.6014 320.793 41.5941C320.793 39.6351 320.2 38.1236 319.015 37.0595C317.854 35.9712 316.367 35.4271 314.553 35.4271C312.739 35.4271 311.288 35.947 310.2 36.987C309.112 38.0269 308.567 39.5626 308.567 41.5941Z" fill="#808CFF"/>
<path d="M340.983 24H344.719V36.8056C345.324 35.4271 346.267 34.3146 347.549 33.4682C348.831 32.6217 350.415 32.1985 352.301 32.1985C354.042 32.1985 355.542 32.6096 356.799 33.4319C358.081 34.23 359.06 35.3424 359.738 36.7693C360.415 38.172 360.753 39.7803 360.753 41.5941C360.753 43.4079 360.415 45.0282 359.738 46.4551C359.06 47.882 358.081 49.0066 356.799 49.8288C355.542 50.6269 354.042 51.0259 352.301 51.0259C350.439 51.0259 348.867 50.6148 347.585 49.7925C346.303 48.9703 345.348 47.8457 344.719 46.4188V50.6632H340.983V24ZM344.792 41.5941C344.792 43.6014 345.372 45.1371 346.533 46.2012C347.718 47.2653 349.217 47.7973 351.031 47.7973C352.845 47.7973 354.296 47.2774 355.384 46.2375C356.473 45.1733 357.017 43.6256 357.017 41.5941C357.017 39.5626 356.473 38.0269 355.384 36.987C354.296 35.947 352.845 35.4271 351.031 35.4271C349.217 35.4271 347.718 35.9712 346.533 37.0595C345.372 38.1236 344.792 39.6351 344.792 41.5941Z" fill="#808CFF"/>
<path d="M364.17 45.657C364.17 44.1334 364.666 42.9242 365.657 42.0294C366.649 41.1104 368.245 40.5421 370.446 40.3244L377.266 39.6714C377.193 38.1236 376.794 36.9991 376.069 36.2977C375.343 35.5722 374.194 35.2094 372.622 35.2094C371.341 35.2094 370.313 35.5238 369.539 36.1526C368.765 36.7814 368.318 37.7609 368.197 39.091H364.569C364.762 36.9628 365.573 35.282 366.999 34.0486C368.451 32.8152 370.361 32.1985 372.731 32.1985C375.343 32.1985 377.375 32.924 378.826 34.3751C380.277 35.8019 381.002 37.785 381.002 40.3244V47.4346H383.65V50.6632H380.204C379.479 50.6632 378.91 50.4697 378.499 50.0828C378.088 49.6716 377.882 49.1033 377.882 48.3778V46.1649C377.423 47.616 376.589 48.7889 375.379 49.6837C374.17 50.5785 372.501 51.0259 370.373 51.0259C368.003 51.0259 366.371 50.4697 365.476 49.3572C364.605 48.2448 364.17 47.0114 364.17 45.657ZM367.87 45.1492C367.87 46.0682 368.148 46.7695 368.704 47.2532C369.285 47.7369 370.071 47.9787 371.062 47.9787C372.272 47.9787 373.348 47.7248 374.291 47.2169C375.234 46.7091 375.96 46.0077 376.468 45.1129C377 44.2181 377.266 43.2023 377.266 42.0657L371.099 42.7549C369.986 42.8758 369.164 43.1177 368.632 43.4804C368.124 43.819 367.87 44.3753 367.87 45.1492Z" fill="#808CFF"/>
<path d="M398.207 50.6632H390.661C388.896 50.6632 388.013 49.7805 388.013 48.015V35.7898H383.95V32.5612H388.013V28.2443L391.75 27.0835V32.5612H397.481V35.7898H391.75V47.4346H398.207V50.6632Z" fill="#808CFF"/>
<path d="M400.409 41.5941C400.409 39.7803 400.784 38.1599 401.534 36.733C402.308 35.3062 403.408 34.1937 404.835 33.3956C406.262 32.5975 407.931 32.1985 409.841 32.1985C411.22 32.1985 412.55 32.4645 413.831 32.9966C415.137 33.5286 416.226 34.3509 417.096 35.4634C417.991 36.5758 418.511 37.9543 418.656 39.5989H414.883C414.666 38.1962 414.098 37.1563 413.178 36.4791C412.284 35.7778 411.171 35.4271 409.841 35.4271C408.027 35.4271 406.625 36.0075 405.633 37.1683C404.641 38.3292 404.146 39.8044 404.146 41.5941C404.146 43.4079 404.641 44.8952 405.633 46.0561C406.625 47.2169 408.027 47.7973 409.841 47.7973C411.171 47.7973 412.284 47.4588 413.178 46.7816C414.098 46.0803 414.666 45.0282 414.883 43.6256H418.656C418.511 45.2701 417.991 46.6486 417.096 47.7611C416.226 48.8735 415.137 49.6958 413.831 50.2279C412.55 50.7599 411.22 51.0259 409.841 51.0259C407.931 51.0259 406.262 50.6269 404.835 49.8288C403.408 49.0307 402.308 47.9183 401.534 46.4914C400.784 45.0403 400.409 43.4079 400.409 41.5941Z" fill="#808CFF"/>
<path d="M422.711 24H426.447V37.386C426.931 35.7657 427.802 34.496 429.059 33.577C430.341 32.658 431.949 32.1985 433.884 32.1985C436.012 32.1985 437.669 32.8756 438.854 34.23C440.063 35.5843 440.668 37.519 440.668 40.0342V50.6632H436.895V40.4695C436.895 38.6799 436.556 37.3981 435.879 36.6242C435.202 35.8261 434.102 35.4271 432.578 35.4271C430.668 35.4271 429.168 36.1163 428.08 37.4948C426.992 38.8492 426.447 40.7476 426.447 43.1902V50.6632H422.711V24Z" fill="#808CFF"/>
<path d="M444.373 41.4127C444.373 39.5021 444.736 37.8576 445.461 36.4791C446.211 35.0764 447.251 34.0123 448.581 33.2868C449.911 32.5612 451.459 32.1985 453.225 32.1985C456.006 32.1985 458.207 32.9845 459.827 34.5564C461.447 36.1284 462.257 38.305 462.257 41.0862V42.3559H448.073C448.146 44.073 448.63 45.4515 449.524 46.4914C450.443 47.5313 451.737 48.0513 453.406 48.0513C454.833 48.0513 455.982 47.7248 456.852 47.0718C457.747 46.4188 458.34 45.4998 458.63 44.3148H462.33C461.943 46.2495 461.012 47.8578 459.537 49.1396C458.086 50.3972 456.066 51.0259 453.478 51.0259C451.544 51.0259 449.887 50.6148 448.509 49.7925C447.154 48.9461 446.126 47.7973 445.425 46.3463C444.724 44.8952 444.373 43.2507 444.373 41.4127ZM458.593 39.9254C458.497 38.4017 457.965 37.2167 456.997 36.3703C456.054 35.5238 454.809 35.1006 453.261 35.1006C451.81 35.1006 450.613 35.5238 449.669 36.3703C448.726 37.2167 448.194 38.4017 448.073 39.9254H458.593Z" fill="#808CFF"/>
<path d="M474.118 51.0259C471.337 51.0259 469.185 50.4213 467.661 49.2121C466.162 48.0029 465.412 46.2737 465.412 44.0246H469.149C469.149 45.4031 469.572 46.443 470.418 47.1444C471.289 47.8215 472.534 48.1601 474.155 48.1601C475.388 48.1601 476.295 47.9666 476.875 47.5797C477.456 47.1927 477.746 46.5881 477.746 45.7659C477.746 45.2096 477.553 44.7622 477.166 44.4236C476.803 44.0609 476.198 43.7465 475.352 43.4804L470.346 42.0657C469.112 41.7271 468.084 41.1708 467.262 40.3969C466.464 39.6231 466.065 38.571 466.065 37.2409C466.065 35.6447 466.694 34.4113 467.951 33.5407C469.233 32.6459 470.999 32.1985 473.248 32.1985C475.69 32.1985 477.601 32.7426 478.979 33.8309C480.382 34.895 481.083 36.4186 481.083 38.4017H477.347C477.347 37.3618 476.996 36.5516 476.295 35.9712C475.594 35.3666 474.59 35.0643 473.284 35.0643C472.22 35.0643 471.373 35.2699 470.745 35.681C470.14 36.068 469.838 36.5637 469.838 37.1683C469.838 37.7246 470.031 38.1841 470.418 38.5469C470.805 38.9096 471.41 39.2119 472.232 39.4538L476.476 40.6146C478.121 41.0499 479.366 41.6787 480.213 42.501C481.083 43.3232 481.519 44.4357 481.519 45.8384C481.519 47.5071 480.89 48.7889 479.632 49.6837C478.375 50.5785 476.537 51.0259 474.118 51.0259Z" fill="#808CFF"/>
<path d="M47.0791 20.7895H58.7267C61.5554 20.7895 63.8156 21.4828 65.5073 22.8694C67.2267 24.2283 68.0864 26.1003 68.0864 28.4853C68.0864 30.2879 67.615 31.7438 66.6721 32.8531C65.7569 33.9347 64.4119 34.628 62.637 34.9331C62.4152 34.9885 62.2626 35.044 62.1794 35.0995C62.0962 35.1549 62.0546 35.2381 62.0546 35.3491C62.0546 35.46 62.0962 35.5432 62.1794 35.5986C62.2626 35.6541 62.4152 35.7096 62.637 35.765C66.4086 36.4861 68.2944 38.774 68.2944 42.6288C68.2944 45.2079 67.4347 47.2047 65.7153 48.619C63.9959 50.0334 61.6664 50.7406 58.7267 50.7406H47.0791V20.7895ZM58.3107 33.6851C60.1411 33.6851 61.5277 33.3246 62.4706 32.6035C63.4413 31.8825 63.9266 30.7177 63.9266 29.1092C63.9266 27.5008 63.4413 26.336 62.4706 25.615C61.5277 24.8939 60.1411 24.5334 58.3107 24.5334H51.239V33.6851H58.3107ZM58.3107 46.9967C60.252 46.9967 61.708 46.6362 62.6786 45.9151C63.6492 45.1663 64.1346 43.9322 64.1346 42.2128C64.1346 40.4934 63.6492 39.2732 62.6786 38.5522C61.708 37.8034 60.252 37.429 58.3107 37.429H51.239V46.9967H58.3107Z" fill="black"/>
<path d="M70.7806 35.765C70.7806 32.659 71.4046 29.9274 72.6525 27.5701C73.9282 25.2128 75.7309 23.3964 78.0604 22.1207C80.3899 20.8172 83.0938 20.1655 86.1721 20.1655C89.0008 20.1655 91.3997 20.734 93.3687 21.8711C95.3654 22.9804 96.863 24.4363 97.8614 26.2389C98.8597 28.0415 99.4005 29.969 99.4837 32.0212H95.3238C95.102 29.553 94.2284 27.584 92.7031 26.1141C91.1778 24.6443 88.9315 23.9094 85.9641 23.9094C83.7733 23.9094 81.8459 24.4086 80.1819 25.407C78.518 26.3776 77.2284 27.7642 76.3132 29.5668C75.3981 31.3694 74.9405 33.4355 74.9405 35.765C74.9405 38.1223 75.3842 40.2022 76.2716 42.0048C77.1868 43.7797 78.5041 45.1663 80.2235 46.1647C81.9429 47.1353 83.9951 47.6207 86.3801 47.6207C89.1811 47.6207 91.261 46.9967 92.6199 45.7487C93.9788 44.5008 94.6583 42.8368 94.6583 40.7569H83.6762V37.013H98.8181V39.9665C98.8181 43.5163 97.695 46.3034 95.4486 48.3278C93.23 50.3523 90.1379 51.3646 86.1721 51.3646C83.0384 51.3646 80.3067 50.7267 77.9772 49.451C75.6477 48.1476 73.8589 46.3172 72.6109 43.96C71.3907 41.6027 70.7806 38.8711 70.7806 35.765Z" fill="black"/>
<path d="M12.1392 50.4383H0L9.16654e-05 20.5728H7.32348V24.7286C7.32348 26.5754 8.82062 28.0725 10.6674 28.0725C12.5143 28.0725 14.0114 26.5754 14.0114 24.7286V20.5728H24.4584V24.4475C24.4584 26.4495 26.0814 28.0725 28.0835 28.0725C30.0856 28.0725 31.7086 26.4495 31.7086 24.4475V20.5728H38.8364L38.8364 50.4383H26.1218L26.1218 41.4787C26.1218 37.6176 22.9917 34.4875 19.1305 34.4875C15.2694 34.4875 12.1393 37.6175 12.1392 41.4787L12.1392 50.4383Z" fill="#808CFF"/>
<path fill-rule="evenodd" clip-rule="evenodd" d="M17.6553 25.2764L17.6553 0.0843483C21.8539 -0.464273 24.2323 1.76812 26.5687 3.96108C29.376 6.59597 32.1226 9.17393 37.8928 6.80269C34.3563 16.2254 25.3051 14.9393 22.0775 14.141C21.0767 14.0635 20.8891 15.0181 20.9223 15.5149L20.9122 15.5188V25.2764H17.6553Z" fill="#808CFF"/>
</svg>
