<svg width="333" height="51" viewBox="0 0 333 51" fill="none" xmlns="http://www.w3.org/2000/svg">
<path d="M100.086 28.7875C100.086 26.0987 100.621 23.671 101.691 21.5043C102.761 19.3376 104.301 17.6408 106.311 16.4139C108.321 15.187 110.684 14.5736 113.399 14.5736C116.088 14.5736 118.437 15.187 120.447 16.4139C122.457 17.6408 123.984 19.3376 125.028 21.5043C126.099 23.671 126.634 26.0987 126.634 28.7875C126.634 31.5023 126.099 33.9431 125.028 36.1098C123.984 38.2503 122.457 39.9471 120.447 41.2001C118.463 42.427 116.114 43.0405 113.399 43.0405C110.684 43.0405 108.321 42.427 106.311 41.2001C104.301 39.9471 102.761 38.2503 101.691 36.1098C100.621 33.9431 100.086 31.5023 100.086 28.7875ZM104.354 28.7875C104.354 31.9983 105.124 34.5696 106.664 36.5013C108.204 38.407 110.449 39.3598 113.399 39.3598C116.349 39.3598 118.581 38.407 120.095 36.5013C121.635 34.5957 122.405 32.0244 122.405 28.7875C122.405 25.5766 121.635 23.0184 120.095 21.1127C118.554 19.2071 116.323 18.2543 113.399 18.2543C110.449 18.2543 108.204 19.2071 106.664 21.1127C105.124 23.0184 104.354 25.5766 104.354 28.7875Z" fill="#808CFF"/>
<path d="M130.307 23.0706H134.34V28.2784C134.862 26.5294 135.802 25.1589 137.16 24.167C138.543 23.175 140.279 22.679 142.367 22.679C144.665 22.679 146.453 23.4099 147.732 24.8718C149.037 26.3336 149.69 28.422 149.69 31.1369V42.6098H145.617V31.6067C145.617 29.675 145.252 28.2915 144.521 27.4561C143.79 26.5947 142.602 26.164 140.958 26.164C138.896 26.164 137.277 26.9079 136.102 28.3959C134.928 29.8577 134.34 31.9069 134.34 34.5435V42.6098H130.307V23.0706Z" fill="#808CFF"/>
<path d="M154.283 13.8296H158.316V27.6519C158.969 26.164 159.987 24.9631 161.37 24.0495C162.754 23.1358 164.464 22.679 166.5 22.679C168.379 22.679 169.998 23.1228 171.355 24.0103C172.739 24.8718 173.796 26.0726 174.527 27.6128C175.258 29.1268 175.623 30.8628 175.623 32.8206C175.623 34.7784 175.258 36.5274 174.527 38.0676C173.796 39.6078 172.739 40.8216 171.355 41.7092C169.998 42.5706 168.379 43.0013 166.5 43.0013C164.49 43.0013 162.793 42.5576 161.41 41.67C160.026 40.7825 158.995 39.5686 158.316 38.0284V42.6098H154.283V13.8296ZM158.394 32.8206C158.394 34.9873 159.021 36.6449 160.274 37.7935C161.553 38.9421 163.172 39.5164 165.129 39.5164C167.087 39.5164 168.654 38.9551 169.828 37.8327C171.003 36.6841 171.59 35.0134 171.59 32.8206C171.59 30.6278 171.003 28.9702 169.828 27.8477C168.654 26.7252 167.087 26.164 165.129 26.164C163.172 26.164 161.553 26.7513 160.274 27.926C159.021 29.0746 158.394 30.7061 158.394 32.8206Z" fill="#808CFF"/>
<path d="M179.233 32.8206C179.233 30.8367 179.677 29.0877 180.564 27.5736C181.452 26.0334 182.692 24.8326 184.284 23.9712C185.876 23.1097 187.704 22.679 189.766 22.679C191.802 22.679 193.616 23.1097 195.209 23.9712C196.801 24.8326 198.041 26.0334 198.929 27.5736C199.816 29.0877 200.26 30.8367 200.26 32.8206C200.26 34.8045 199.816 36.5666 198.929 38.1068C198.041 39.6469 196.801 40.8477 195.209 41.7092C193.616 42.5706 191.802 43.0013 189.766 43.0013C187.704 43.0013 185.876 42.5706 184.284 41.7092C182.692 40.8477 181.452 39.6469 180.564 38.1068C179.677 36.5666 179.233 34.8045 179.233 32.8206ZM183.266 32.8206C183.266 34.7784 183.84 36.3839 184.989 37.6369C186.164 38.8899 187.756 39.5164 189.766 39.5164C191.776 39.5164 193.342 38.8899 194.465 37.6369C195.613 36.3839 196.188 34.7784 196.188 32.8206C196.188 30.8889 195.613 29.2965 194.465 28.0435C193.342 26.7905 191.776 26.164 189.766 26.164C187.756 26.164 186.164 26.7905 184.989 28.0435C183.84 29.2965 183.266 30.8889 183.266 32.8206Z" fill="#808CFF"/>
<path d="M203.861 37.2061C203.861 35.5616 204.396 34.2563 205.466 33.2905C206.536 32.2985 208.259 31.6851 210.635 31.4501L217.996 30.7453C217.918 29.0746 217.487 27.8607 216.704 27.1037C215.921 26.3206 214.681 25.929 212.984 25.929C211.601 25.929 210.491 26.2684 209.656 26.9471C208.82 27.6258 208.338 28.683 208.207 30.1188H204.291C204.5 27.8216 205.375 26.0073 206.915 24.676C208.481 23.3447 210.543 22.679 213.102 22.679C215.921 22.679 218.114 23.4621 219.68 25.0284C221.246 26.5686 222.029 28.7091 222.029 31.4501V39.1248H224.888V42.6098H221.168C220.385 42.6098 219.771 42.4009 219.328 41.9833C218.884 41.5395 218.662 40.926 218.662 40.1429V37.7543C218.166 39.3206 217.265 40.5867 215.96 41.5525C214.655 42.5184 212.854 43.0013 210.556 43.0013C207.998 43.0013 206.236 42.4009 205.27 41.2001C204.33 39.9993 203.861 38.668 203.861 37.2061ZM207.855 36.658C207.855 37.6499 208.155 38.407 208.755 38.929C209.382 39.4511 210.23 39.7122 211.3 39.7122C212.606 39.7122 213.767 39.4381 214.785 38.8899C215.803 38.3417 216.587 37.5847 217.135 36.6188C217.709 35.6529 217.996 34.5565 217.996 33.3296L211.34 34.0736C210.139 34.2041 209.251 34.4652 208.677 34.8567C208.129 35.2222 207.855 35.8226 207.855 36.658Z" fill="#808CFF"/>
<path d="M228.391 25.8899C228.391 24.0103 229.357 23.0706 231.289 23.0706H242.683V26.5555H232.424V42.6098H228.391V25.8899Z" fill="#808CFF"/>
<path d="M253.25 43.0013C251.37 43.0013 249.739 42.5706 248.355 41.7092C246.998 40.8216 245.954 39.6078 245.223 38.0676C244.492 36.5274 244.126 34.7784 244.126 32.8206C244.126 30.8628 244.492 29.1268 245.223 27.6128C245.954 26.0726 246.998 24.8718 248.355 24.0103C249.739 23.1228 251.37 22.679 253.25 22.679C255.286 22.679 256.983 23.1358 258.34 24.0495C259.724 24.937 260.755 26.1248 261.434 27.6128V13.8296H265.467V42.6098H261.434V38.0676C260.729 39.6078 259.685 40.8216 258.301 41.7092C256.944 42.5706 255.26 43.0013 253.25 43.0013ZM248.159 32.8206C248.159 35.0134 248.76 36.6841 249.961 37.8327C251.161 38.9551 252.715 39.5164 254.62 39.5164C256.552 39.5164 258.157 38.9421 259.437 37.7935C260.716 36.6188 261.355 34.9612 261.355 32.8206C261.355 30.7061 260.716 29.0746 259.437 27.926C258.157 26.7513 256.552 26.164 254.62 26.164C252.715 26.164 251.161 26.7383 249.961 27.8869C248.76 29.0093 248.159 30.6539 248.159 32.8206Z" fill="#808CFF"/>
<path d="M269.596 39.1248H275.039V26.5555H270.849V23.0706H276.331C277.95 23.0706 278.759 23.8929 278.759 25.5374V39.1248H284.202V42.6098H269.596V39.1248ZM276.449 20.0555C275.587 20.0555 274.882 19.8075 274.334 19.3115C273.786 18.7894 273.512 18.1107 273.512 17.2754C273.512 16.4661 273.786 15.8135 274.334 15.3175C274.882 14.7955 275.587 14.5344 276.449 14.5344C277.336 14.5344 278.067 14.7955 278.641 15.3175C279.216 15.8135 279.503 16.4661 279.503 17.2754C279.503 18.1107 279.216 18.7894 278.641 19.3115C278.067 19.8075 277.336 20.0555 276.449 20.0555Z" fill="#808CFF"/>
<path d="M288.005 23.0706H292.038V28.2784C292.56 26.5294 293.5 25.1589 294.857 24.167C296.241 23.175 297.977 22.679 300.065 22.679C302.362 22.679 304.15 23.4099 305.429 24.8718C306.735 26.3336 307.387 28.422 307.387 31.1369V42.6098H303.315V31.6067C303.315 29.675 302.95 28.2915 302.219 27.4561C301.488 26.5947 300.3 26.164 298.655 26.164C296.593 26.164 294.975 26.9079 293.8 28.3959C292.625 29.8577 292.038 31.9069 292.038 34.5435V42.6098H288.005V23.0706Z" fill="#808CFF"/>
<path d="M320.589 43.0013C318.709 43.0013 317.078 42.5706 315.694 41.7092C314.337 40.8216 313.292 39.6078 312.562 38.0676C311.831 36.5274 311.465 34.7784 311.465 32.8206C311.465 30.8628 311.831 29.1268 312.562 27.6128C313.292 26.0726 314.337 24.8718 315.694 24.0103C317.078 23.1228 318.709 22.679 320.589 22.679C322.625 22.679 324.322 23.1358 325.679 24.0495C327.063 24.937 328.094 26.1248 328.772 27.6128V23.0706H332.806V47.7785C332.806 49.5014 331.853 50.3628 329.947 50.3628H314.754V46.8779H328.772V38.0676C328.068 39.6078 327.023 40.8216 325.64 41.7092C324.282 42.5706 322.599 43.0013 320.589 43.0013ZM315.498 32.8206C315.498 35.0134 316.086 36.6841 317.26 37.8327C318.435 38.9551 320.001 39.5164 321.959 39.5164C323.917 39.5164 325.522 38.9421 326.775 37.7935C328.054 36.6449 328.694 34.9873 328.694 32.8206C328.694 30.7061 328.054 29.0746 326.775 27.926C325.522 26.7513 323.917 26.164 321.959 26.164C320.001 26.164 318.435 26.7252 317.26 27.8477C316.086 28.9702 315.498 30.6278 315.498 32.8206Z" fill="#808CFF"/>
<path fill-rule="evenodd" clip-rule="evenodd" d="M15.6981 10.7832V20.2404H18.0738V25.7079H23.9516V20.2404H28.0309V31.1754L21.6153 43.2002L14.2907 43.0897L6.96602 43.2002L0.550415 31.1754V20.2404H4.61116V25.7079H10.5076V20.2404H13.1258V1.72463C13.1258 1.01431 13.7017 0.438477 14.412 0.438477C14.9247 0.438477 15.3673 0.738418 15.5739 1.17239C16.2242 1.42138 16.8792 2.08001 17.5564 2.76099C18.3606 3.5696 19.1961 4.40971 20.0922 4.63288C20.9971 4.85824 21.6679 4.61729 22.4237 4.34584C23.2165 4.06106 24.1028 3.74272 25.4509 3.89403C26.4617 4.01297 26.9977 4.67308 27.5969 5.41122C28.3937 6.39264 29.3025 7.51197 31.5883 7.68065L31.5739 7.69084C30.1104 8.72435 28.1107 10.1364 25.0059 9.86027C24.0348 9.77648 23.3507 9.46344 22.6948 9.16329C21.76 8.73554 20.8825 8.33399 19.3134 8.65963C17.6151 9.00034 16.7569 9.80437 16.1044 10.4158C15.9613 10.5498 15.8281 10.6746 15.6981 10.7832Z" fill="#808CFF"/>
<path d="M39.6633 14.9323H39.5718V15.0239V41.8491V41.9406H39.6633H50.0953C52.7673 41.9406 54.8772 41.2912 56.4137 39.9815C57.9781 38.6693 58.756 36.8034 58.756 34.3976C58.756 32.9202 58.4586 31.6855 57.8578 30.6988C57.2563 29.7112 56.3549 28.9789 55.159 28.5005L55.159 28.5005L55.1572 28.4998C55.0682 28.4665 55.0094 28.4249 54.9729 28.3793C54.9375 28.335 54.9185 28.2811 54.9185 28.2129C54.9185 28.0958 54.9429 28.0402 54.9662 28.0168L54.9726 28.0104L54.9776 28.0029C55.0137 27.9487 55.0953 27.883 55.2405 27.8104L55.2405 27.8105L55.2448 27.8081C57.4572 26.5511 58.5697 24.7085 58.5697 22.289C58.5697 19.9817 57.8036 18.1783 56.2645 16.8913C54.7286 15.5822 52.6689 14.9323 50.0953 14.9323H39.6633ZM53.3939 25.5315L53.3939 25.5314L53.3929 25.5322C52.5709 26.1608 51.3522 26.4821 49.7227 26.4821H43.4805V18.4685H49.7227C51.3522 18.4685 52.5709 18.7898 53.3929 19.4184L53.3939 19.4192C54.2327 20.0423 54.6609 21.0532 54.6609 22.4753C54.6609 23.8974 54.2327 24.9083 53.3939 25.5315ZM53.5788 31.0052L53.5802 31.0062C54.4175 31.6282 54.8472 32.6874 54.8472 34.2113C54.8472 35.7346 54.4178 36.8072 53.5795 37.4543C52.7329 38.0828 51.4523 38.4044 49.7227 38.4044H43.4805V30.0183H49.7227C51.4522 30.0183 52.7325 30.3522 53.5788 31.0052ZM63.1183 20.494L63.1179 20.4947C61.9922 22.6212 61.4307 25.0829 61.4307 27.8772C61.4307 30.6713 61.9796 33.1327 63.0803 35.259L63.0807 35.2597C64.2066 37.3866 65.8213 39.0387 67.923 40.2147L67.9238 40.2151C70.0259 41.3663 72.4881 41.9402 75.3074 41.9402C78.8745 41.9402 81.6686 41.0295 83.6773 39.1966C85.7117 37.3631 86.7251 34.8403 86.7251 31.6402V28.995V28.9034H86.6336H73.072H72.9805V28.995V32.3481V32.4396H73.072H82.8159C82.7962 34.2376 82.1962 35.6717 81.0204 36.7516C79.8271 37.8474 77.991 38.404 75.4937 38.404C73.3703 38.404 71.5486 37.9721 70.0251 37.1121C68.5008 36.2269 67.3335 34.9983 66.5219 33.4247C65.7345 31.8249 65.3395 29.9766 65.3395 27.8772C65.3395 25.803 65.7468 23.9671 66.559 22.3673C67.3711 20.7677 68.5142 19.5392 69.9885 18.6792L69.9894 18.6786C71.4637 17.7941 73.1733 17.3504 75.1211 17.3504C77.7647 17.3504 79.7501 18.0051 81.0933 19.2994C82.4409 20.5981 83.2158 22.3397 83.4129 24.5323L83.4203 24.6156H83.504H87.2297H87.325L87.3212 24.5204C87.2461 22.6681 86.7578 20.9279 85.8568 19.301C84.9535 17.6701 83.5993 16.3545 81.798 15.3537C80.0177 14.3258 77.8528 13.8143 75.3074 13.8143C72.5373 13.8143 70.0999 14.4008 67.9979 15.5768C65.8961 16.7279 64.2691 18.3675 63.1183 20.494Z" fill="#182232" stroke="#182232" stroke-width="0.183022"/>
</svg>
