<svg width="42" height="41" viewBox="0 0 42 41" fill="none" xmlns="http://www.w3.org/2000/svg">
<path d="M29.607 23.6537V17.9006H12.3352V23.6537H0.82901V40.9256H41.1132V23.6537H29.607ZM12.3352 38.9995H2.7551V25.5798H12.3352V38.9995ZM27.6809 38.9995H14.2613V19.8267H27.6809V38.9995ZM39.1997 38.9995H29.607V25.5798H39.1997V38.9995Z" fill="#182232"/>
<path d="M37.2737 27.4932H31.5206V29.4193H35.3602V31.3328H31.5206V33.2462H35.3602V35.1723H31.5206V37.0858H37.2737V27.4932Z" fill="#182232"/>
<path d="M37.2745 8.30798H33.4475V10.2341H37.2745V8.30798Z" fill="#182232"/>
<path d="M33.4467 0.641113H31.5206V2.55461H33.4467V0.641113Z" fill="#182232"/>
<path d="M31.5207 2.55481H29.6072V4.4809H31.5207V2.55481Z" fill="#182232"/>
<path d="M23.8543 29.4193H21.9282V21.7401H18.1012V23.6536H20.0147V29.4193H18.1012V31.3328H23.8543V29.4193Z" fill="#182232"/>
<path d="M21.9279 0.641113H20.0144V4.4807H21.9279V0.641113Z" fill="#182232"/>
<path d="M12.3351 6.39417V14.0608H14.2612V15.9868H27.6809V14.0608H29.607V6.39417H27.6809V8.30766H25.7674V10.2338H23.8539V8.30766H21.9278V6.39417H20.0143V8.30766H18.1008V10.2338H16.1747V8.30766H14.2612V6.39417H12.3351ZM23.8539 12.1473H25.7674V14.0608H23.8539V12.1473ZM20.0143 12.1473H21.9278V14.0608H20.0143V12.1473ZM16.1747 12.1473H18.1008V14.0608H16.1747V12.1473Z" fill="#182232"/>
<path d="M12.3352 2.55481H10.4217V4.4809H12.3352V2.55481Z" fill="#182232"/>
<path d="M10.4219 0.641113H8.50843V2.55461H10.4219V0.641113Z" fill="#182232"/>
<path d="M10.4212 35.1725H6.58161V33.2464H10.4212V27.4933H4.66811V29.4194H8.50769V31.3329H4.66811V37.086H10.4212V35.1725Z" fill="#182232"/>
<path d="M8.50769 8.30798H4.66811V10.2341H8.50769V8.30798Z" fill="#182232"/>
</svg>
