<svg width="701" height="148" viewBox="0 0 701 148" fill="none" xmlns="http://www.w3.org/2000/svg">
<path d="M81.6323 15.4553H88.9909V59.6065H81.6323C77.2172 59.6065 74.2738 62.5499 74.2738 66.965C74.2738 71.3801 77.2172 74.3235 81.6323 74.3235H88.9909V133.192H81.6323C77.2172 133.192 74.2738 136.135 74.2738 140.55V147.909H0.688553V0.738281H74.2738V8.09681C74.2738 12.5119 77.2172 15.4553 81.6323 15.4553ZM74.2738 22.8139C74.2738 18.3987 71.3304 15.4553 66.9153 15.4553H22.7641C18.349 15.4553 15.4056 18.3987 15.4056 22.8139V52.248C15.4056 56.6631 18.349 59.6065 22.7641 59.6065H66.9153C71.3304 59.6065 74.2738 56.6631 74.2738 52.248V22.8139ZM74.2738 81.6821C74.2738 77.2669 71.3304 74.3235 66.9153 74.3235H22.7641C18.349 74.3235 15.4056 77.2669 15.4056 81.6821V125.833C15.4056 130.248 18.349 133.192 22.7641 133.192H66.9153C71.3304 133.192 74.2738 130.248 74.2738 125.833V81.6821Z" fill="#808CFF"/>
<path d="M191.399 118.475H198.757V147.909H184.04V125.833C184.04 121.418 181.097 118.475 176.681 118.475H169.323V111.116C169.323 106.701 166.38 103.758 161.964 103.758H132.53C128.115 103.758 125.172 106.701 125.172 111.116V118.475H117.813C113.398 118.475 110.455 121.418 110.455 125.833V147.909H95.7377V118.475H103.096C107.511 118.475 110.455 115.531 110.455 111.116V74.3235H117.813C122.228 74.3235 125.172 71.3801 125.172 66.965V30.1724H132.53C136.945 30.1724 139.889 27.229 139.889 22.8139V0.738281H154.606V22.8139C154.606 27.229 157.549 30.1724 161.964 30.1724H169.323V66.965C169.323 71.3801 172.266 74.3235 176.681 74.3235H184.04V111.116C184.04 115.531 186.983 118.475 191.399 118.475ZM161.964 89.0406C166.38 89.0406 169.323 86.0972 169.323 81.6821C169.323 77.2669 166.38 74.3235 161.964 74.3235H154.606V37.5309C154.606 33.1158 151.662 30.1724 147.247 30.1724C142.832 30.1724 139.889 33.1158 139.889 37.5309V74.3235H132.53C128.115 74.3235 125.172 77.2669 125.172 81.6821C125.172 86.0972 128.115 89.0406 132.53 89.0406H161.964Z" fill="#808CFF"/>
<path d="M287.942 0.738281V15.4553H251.15C246.735 15.4553 243.791 18.3987 243.791 22.8139V147.909H229.074V22.8139C229.074 18.3987 226.131 15.4553 221.716 15.4553H184.923V0.738281H287.942Z" fill="#808CFF"/>
<path d="M406.504 44.8894H391.787V37.5309C391.787 33.1158 388.844 30.1724 384.429 30.1724H377.07V22.8139C377.07 18.3987 374.127 15.4553 369.712 15.4553H325.561C321.145 15.4553 318.202 18.3987 318.202 22.8139V30.1724H310.843C306.428 30.1724 303.485 33.1158 303.485 37.5309V111.116C303.485 115.531 306.428 118.475 310.843 118.475H318.202V125.833C318.202 130.248 321.145 133.192 325.561 133.192H369.712C374.127 133.192 377.07 130.248 377.07 125.833V118.475H384.429C388.844 118.475 391.787 115.531 391.787 111.116V103.758H406.504V118.475H399.146C394.731 118.475 391.787 121.418 391.787 125.833V133.192H384.429C380.014 133.192 377.07 136.135 377.07 140.55V147.909H318.202V140.55C318.202 136.135 315.259 133.192 310.843 133.192H303.485V125.833C303.485 121.418 300.542 118.475 296.126 118.475H288.768V30.1724H296.126C300.542 30.1724 303.485 27.229 303.485 22.8139V15.4553H310.843C315.259 15.4553 318.202 12.5119 318.202 8.09681V0.738281H377.07V8.09681C377.07 12.5119 380.014 15.4553 384.429 15.4553H391.787V22.8139C391.787 27.229 394.731 30.1724 399.146 30.1724H406.504V44.8894Z" fill="#808CFF"/>
<path d="M501.611 0.738281H516.328V147.909H501.611V81.6821C501.611 77.2669 498.668 74.3235 494.252 74.3235H435.384C430.969 74.3235 428.026 77.2669 428.026 81.6821V147.909H413.309V0.738281H428.026V52.248C428.026 56.6631 430.969 59.6065 435.384 59.6065H494.252C498.668 59.6065 501.611 56.6631 501.611 52.248V0.738281Z" fill="#808CFF"/>
<path d="M537.734 52.248C537.734 56.6631 540.678 59.6065 545.093 59.6065H596.603V74.3235H545.093C540.678 74.3235 537.734 77.2669 537.734 81.6821V125.833C537.734 130.248 540.678 133.192 545.093 133.192H611.32V147.909H523.017V0.738281H611.32V15.4553H545.093C540.678 15.4553 537.734 18.3987 537.734 22.8139V52.248Z" fill="#808CFF"/>
<path d="M693.146 15.4553H700.505V44.8894H685.788V22.8139C685.788 18.3987 682.844 15.4553 678.429 15.4553H634.278C629.863 15.4553 626.92 18.3987 626.92 22.8139V52.248C626.92 56.6631 629.863 59.6065 634.278 59.6065H656.354V66.965C656.354 71.3801 659.297 74.3235 663.712 74.3235H685.788V81.6821C685.788 86.0972 688.731 89.0406 693.146 89.0406H700.505V133.192H693.146C688.731 133.192 685.788 136.135 685.788 140.55V147.909H626.92V140.55C626.92 136.135 623.976 133.192 619.561 133.192H612.203V103.758H626.92V125.833C626.92 130.248 629.863 133.192 634.278 133.192H678.429C682.844 133.192 685.788 130.248 685.788 125.833V96.3991C685.788 91.984 682.844 89.0406 678.429 89.0406H656.354V81.6821C656.354 77.2669 653.41 74.3235 648.995 74.3235H626.92V66.965C626.92 62.5499 623.976 59.6065 619.561 59.6065H612.203V15.4553H619.561C623.976 15.4553 626.92 12.5119 626.92 8.09681V0.738281H685.788V8.09681C685.788 12.5119 688.731 15.4553 693.146 15.4553Z" fill="#808CFF"/>
</svg>
