<svg fill="none" height="77" viewBox="0 0 49 77" width="49" xmlns="http://www.w3.org/2000/svg"><path d="m24.724 1.2002v27.3808c0 .1162-.1192.2325-.2384.2325-.8346.3553-1.55.7073-2.3846 1.0594-1.0731.4682-2.2655.9398-3.3386 1.5276l-3.9346 1.7601-3.2193 1.4114-3.93469 1.7633c-1.07309.4716-2.14618.9398-3.33851 1.5276-.83462.3521-1.78849.8236-2.62311 1.1757-.11923 0-.11923.1162-.23847 0h-.11923c.3577-.5878.71539-1.0594 1.07309-1.6439 1.90772-3.1747 3.93467-6.3462 5.84239-9.5211 2.02693-3.4038 4.17313-6.8144 6.20003-10.2216 1.9078-3.1715 3.8155-6.343 5.7232-9.39821 1.4308-2.35452 2.8616-4.58284 4.1731-6.93736.2385 0 .2385-.11623.3577-.11623z" fill="#7c6b61"/><path d="m47.855 38.9304c-1.7885 1.1756-3.6962 2.2317-5.4846 3.2878-5.8424 3.4105-11.5656 6.7015-17.408 10.1087-.1192 0-.1192.1162-.2384.1162-.1193 0-.1193-.1162-.1193-.1162v-23.6216c0-.1162.1193-.1162.2385-.1162.4769.2325.9538.4716 1.55.704 1.4308.7074 2.9809 1.2952 4.4116 1.9993 1.3116.5878 2.5039 1.1756 3.8154 1.6438 1.3116.5878 2.5039 1.1755 3.8155 1.7633 1.073.4716 2.2653.9399 3.3385 1.5277 1.0731.4716 2.2654.9398 3.3385 1.5276.8346.352 1.6692.8236 2.6231 1.1756 0-.1162 0 0 .1192 0z" fill="#483c32"/><path d="m24.7242 75.5284c-.1193 0-.1193 0-.2385-.1196-2.3846-3.2877-4.6501-6.4624-7.0347-9.7535l-7.1539-9.8697c-2.26544-3.1714-4.65009-6.3429-6.9155-9.6372l-1.78849-2.4675c0-.1162-.11923-.1162-.11923-.2324.11923 0 .11923.1162.23846.1162 3.21927 1.8797 6.55779 3.7592 9.77706 5.6389 3.6962 2.235 7.5116 4.3504 11.2078 6.582.5962.352 1.3116.704 1.9077 1.056.1193 0 .1193.1196.1193.2358z" fill="#7c6b61"/><path d="m1.46069 39.0555c0-.1163 0-.1163 0 0 1.19233-.5878 2.38465-1.0561 3.57698-1.6439l4.65006-2.1153c1.19237-.5878 2.38467-1.0561 3.57697-1.6439 1.6693-.8236 3.4577-1.5276 5.127-2.3512 1.1923-.4716 2.3847-1.0594 3.577-1.5277.8346-.352 1.6692-.704 2.5038-1.1756.1193 0 .1193-.1162.2385-.1162v23.9703c-.1192.1195-.1192 0-.2385 0-.3577-.2325-.7154-.3521-.9538-.5877l-21.81954-12.6893c-.11923-.1195-.23847-.1195-.23847-.1195zm46.14301 4.3504c0 .1162 0 .1162-.1193.2325-6.9154 9.6372-13.8309 19.1549-20.7465 28.7922-.7154 1.056-1.4308 1.9958-2.1461 3.0552v-18.6867c1.55-.9399 3.1001-1.8797 4.6501-2.7l18.2425-10.577c0-.1162.1193-.1162.1193-.1162z" fill="#52453b"/><path d="m24.7239 28.6972v-27.3742l22.8926 37.3668c.1193.1163.2385.2325.2385.3521-.4769-.2325-.9539-.4716-1.5501-.7041-.5962-.2358-1.1923-.5878-1.7885-.8236-.3576-.1162-.7153-.352-1.1923-.4716-.5961-.2324-1.3115-.5878-1.9076-.8202-.3577-.1196-.7155-.352-1.0732-.4716l-2.5039-1.0561c-.4769-.2357-.8346-.352-1.3115-.5878-.5962-.2358-1.1923-.5878-1.7885-.8236-.3576-.1162-.7154-.352-1.0731-.4682l-2.5039-1.0593c-.4769-.2325-.8346-.352-1.3115-.5878-.5962-.2325-1.1923-.5878-1.7885-.8236-.3578-.2325-.8347-.352-1.1924-.5845l-2.1461-1.0594z" fill="#594a42"/></svg>