<svg width="294" height="48" viewBox="0 0 294 48" fill="none" xmlns="http://www.w3.org/2000/svg">
<path d="M39.0713 15.1809H48.7376C51.0851 15.1809 52.9608 15.7563 54.3647 16.907C55.7917 18.0348 56.5051 19.5883 56.5051 21.5676C56.5051 23.0635 56.1139 24.2718 55.3314 25.1924C54.5719 26.09 53.4556 26.6654 51.9827 26.9185C51.7986 26.9646 51.672 27.0106 51.6029 27.0566C51.5339 27.1027 51.4994 27.1717 51.4994 27.2638C51.4994 27.3558 51.5339 27.4249 51.6029 27.4709C51.672 27.5169 51.7986 27.563 51.9827 27.609C55.1127 28.2074 56.6777 30.1061 56.6777 33.3052C56.6777 35.4456 55.9643 37.1027 54.5373 38.2764C53.1104 39.4502 51.1772 40.0371 48.7376 40.0371H39.0713V15.1809ZM48.3923 25.8829C49.9113 25.8829 51.0621 25.5837 51.8446 24.9853C52.6501 24.3869 53.0529 23.4203 53.0529 22.0854C53.0529 20.7505 52.6501 19.7839 51.8446 19.1855C51.0621 18.5871 49.9113 18.2879 48.3923 18.2879H42.5235V25.8829H48.3923ZM48.3923 36.9301C50.0034 36.9301 51.2117 36.6309 52.0172 36.0325C52.8227 35.4111 53.2255 34.3869 53.2255 32.96C53.2255 31.533 52.8227 30.5204 52.0172 29.922C51.2117 29.3006 50.0034 28.9899 48.3923 28.9899H42.5235V36.9301H48.3923Z" fill="#FFFCFC"/>
<path d="M76.3474 40.0371H73.2404V37.1372C73.2404 36.9991 73.1714 36.9301 73.0333 36.9301C72.8952 36.9301 72.7916 36.9991 72.7226 37.1372C72.1702 38.2419 71.4222 39.0935 70.4786 39.6918C69.558 40.2672 68.2922 40.5549 66.6811 40.5549C64.5177 40.5549 62.8261 39.9335 61.6063 38.6907C60.3866 37.4249 59.7767 35.6297 59.7767 33.3052V22.0854H62.8837V32.7874C62.8837 34.4214 63.2979 35.6642 64.1265 36.5158C64.955 37.3673 66.1518 37.7931 67.7168 37.7931C69.489 37.7931 70.8469 37.2638 71.7905 36.2051C72.7571 35.1234 73.2404 33.5238 73.2404 31.4065V22.0854H76.3474V40.0371Z" fill="#FFFCFC"/>
<path d="M83.6052 22.0854V40.0371H80.4982V22.0854H83.6052ZM84.2957 15.1809V19.3236H79.8078V15.1809H84.2957Z" fill="#FFFCFC"/>
<path d="M86.7284 31.0612C86.7284 29.0359 87.1312 27.3098 87.9367 25.8829C88.7652 24.4329 89.8239 23.3512 91.1128 22.6378C92.4246 21.9243 93.8285 21.5676 95.3245 21.5676C98.2704 21.5676 100.342 22.7413 101.539 25.0889C101.631 25.273 101.746 25.365 101.884 25.365C102.022 25.365 102.091 25.296 102.091 25.1579V15.1809H105.198V40.0371H102.091V36.9646C102.091 36.8265 102.022 36.7574 101.884 36.7574C101.746 36.7574 101.631 36.8495 101.539 37.0336C100.342 39.3811 98.2704 40.5549 95.3245 40.5549C93.8285 40.5549 92.4246 40.1982 91.1128 39.4847C89.8239 38.7713 88.7652 37.7011 87.9367 36.2741C87.1312 34.8242 86.7284 33.0866 86.7284 31.0612ZM89.8354 31.0612C89.8354 33.1786 90.3993 34.8357 91.527 36.0325C92.6778 37.2062 94.1853 37.7931 96.0495 37.7931C97.9137 37.7931 99.4097 37.2062 100.537 36.0325C101.688 34.8357 102.264 33.1786 102.264 31.0612C102.264 28.9439 101.688 27.2983 100.537 26.1245C99.4097 24.9278 97.9137 24.3294 96.0495 24.3294C94.1853 24.3294 92.6778 24.9278 91.527 26.1245C90.3993 27.2983 89.8354 28.9439 89.8354 31.0612Z" fill="#FFFCFC"/>
<path d="M112.431 15.1809V40.0371H109.324V15.1809H112.431Z" fill="#FFFCFC"/>
<path d="M115.382 27.609C115.382 25.0313 115.9 22.7643 116.936 20.8081C117.994 18.8518 119.49 17.3443 121.423 16.2856C123.357 15.2039 125.601 14.6631 128.155 14.6631C130.503 14.6631 132.494 15.1349 134.128 16.0785C135.785 16.9991 137.028 18.2074 137.856 19.7034C138.685 21.1993 139.133 22.7989 139.203 24.502H135.75C135.566 22.4536 134.841 20.8196 133.575 19.5998C132.31 18.38 130.445 17.7701 127.983 17.7701C126.165 17.7701 124.565 18.1844 123.184 19.0129C121.803 19.8184 120.733 20.9692 119.974 22.4652C119.214 23.9611 118.834 25.6757 118.834 27.609C118.834 29.5653 119.203 31.2914 119.939 32.7874C120.698 34.2603 121.792 35.4111 123.219 36.2396C124.646 37.0451 126.349 37.4479 128.328 37.4479C130.652 37.4479 132.379 36.9301 133.506 35.8944C134.634 34.8587 135.198 33.4778 135.198 31.7517H126.084V28.6447H138.65V31.0958C138.65 34.0417 137.718 36.3547 135.854 38.0348C134.013 39.7149 131.446 40.5549 128.155 40.5549C125.555 40.5549 123.288 40.0256 121.354 38.9669C119.421 37.8852 117.937 36.3662 116.901 34.4099C115.888 32.4536 115.382 30.1867 115.382 27.609Z" fill="#FFFCFC"/>
<path d="M158.527 40.0371H155.42V37.1372C155.42 36.9991 155.351 36.9301 155.213 36.9301C155.075 36.9301 154.971 36.9991 154.902 37.1372C154.35 38.2419 153.602 39.0935 152.658 39.6918C151.738 40.2672 150.472 40.5549 148.861 40.5549C146.697 40.5549 145.006 39.9335 143.786 38.6907C142.566 37.4249 141.956 35.6297 141.956 33.3052V22.0854H145.063V32.7874C145.063 34.4214 145.478 35.6642 146.306 36.5158C147.135 37.3673 148.331 37.7931 149.896 37.7931C151.669 37.7931 153.026 37.2638 153.97 36.2051C154.937 35.1234 155.42 33.5238 155.42 31.4065V22.0854H158.527V40.0371Z" fill="#FFFCFC"/>
<path d="M165.785 22.0854V40.0371H162.678V22.0854H165.785ZM166.475 15.1809V19.3236H161.987V15.1809H166.475Z" fill="#FFFCFC"/>
<path d="M168.908 31.0612C168.908 29.0359 169.311 27.3098 170.116 25.8829C170.945 24.4329 172.004 23.3512 173.292 22.6378C174.604 21.9243 176.008 21.5676 177.504 21.5676C180.45 21.5676 182.521 22.7413 183.718 25.0889C183.81 25.273 183.925 25.365 184.063 25.365C184.201 25.365 184.27 25.296 184.27 25.1579V15.1809H187.377V40.0371H184.27V36.9646C184.27 36.8265 184.201 36.7574 184.063 36.7574C183.925 36.7574 183.81 36.8495 183.718 37.0336C182.521 39.3811 180.45 40.5549 177.504 40.5549C176.008 40.5549 174.604 40.1982 173.292 39.4847C172.004 38.7713 170.945 37.7011 170.116 36.2741C169.311 34.8242 168.908 33.0866 168.908 31.0612ZM172.015 31.0612C172.015 33.1786 172.579 34.8357 173.707 36.0325C174.857 37.2062 176.365 37.7931 178.229 37.7931C180.093 37.7931 181.589 37.2062 182.717 36.0325C183.868 34.8357 184.443 33.1786 184.443 31.0612C184.443 28.9439 183.868 27.2983 182.717 26.1245C181.589 24.9278 180.093 24.3294 178.229 24.3294C176.365 24.3294 174.857 24.9278 173.707 26.1245C172.579 27.2983 172.015 28.9439 172.015 31.0612Z" fill="#FFFCFC"/>
<path d="M194.611 15.1809V40.0371H191.504V15.1809H194.611Z" fill="#FFFCFC"/>
<path d="M216.351 22.5864C217.188 22.5864 217.607 22.844 217.607 23.327C217.607 23.7455 217.285 24.3251 216.512 24.3251C215.836 24.3251 215.321 23.9065 214.484 23.9065C214.194 23.9065 213.937 23.9387 213.647 24.0997C214.162 24.8724 214.42 25.9027 214.42 27.0618C214.42 30.9898 211.554 34.8534 208.302 35.2398C205.759 35.5939 204.052 36.1413 204.052 37.1072C204.052 37.8477 204.825 38.395 206.918 39.1678L210.105 40.3912C212.456 41.2927 213.357 42.0333 213.357 43.4177C213.357 45.9291 210.17 47.5067 205.887 47.5067C201.219 47.5067 198.031 45.7681 198.031 43.6109C198.031 41.3893 200.8 40.4556 204.567 40.0371C203.247 39.4253 202.153 38.717 202.153 37.7189C202.153 36.0769 204.535 35.3685 206.531 35.0788C204.954 34.4992 204.02 32.8572 204.02 30.7966C204.02 26.6754 207.304 22.6186 210.813 22.6186C211.844 22.6186 212.649 22.9728 213.26 23.6167C214.259 22.9406 215.482 22.5864 216.351 22.5864ZM207.787 34.4348C210.524 34.4348 212.681 30.0883 212.681 26.5466C212.681 24.6792 212.069 23.4558 210.62 23.4558C207.884 23.4558 205.726 27.8345 205.726 31.344C205.726 33.1792 206.338 34.4348 207.787 34.4348ZM209.429 41.8723L205.791 40.52L205.565 40.4234C201.927 40.9064 199.706 41.8079 199.706 43.4499C199.706 45.4461 202.957 46.4442 206.306 46.4442C209.944 46.4442 211.586 45.3173 211.586 43.9007C211.586 42.967 210.685 42.323 209.429 41.8723Z" fill="#FFFCFC"/>
<path d="M218.009 40.0371H216.141L220.488 26.8364C220.745 25.9993 221.067 24.9368 221.067 24.5504C221.067 24.0675 220.874 23.9387 220.584 23.9387C219.49 23.9387 217.848 26.0315 216.753 27.9633H216.077C217.397 25.4198 219.586 22.7474 221.615 22.7474C222.452 22.7474 222.87 23.4236 222.87 24.1963C222.87 24.8724 222.548 25.7417 222.162 26.8364L220.037 32.6962H220.262C222.999 24.9368 225.961 22.683 228.279 22.683C228.956 22.683 229.31 22.9728 229.31 23.488C229.31 24.1963 228.762 24.9046 228.086 24.9046C227.539 24.9046 227.249 24.5826 226.605 24.5826C224.867 24.5826 221.969 28.1243 218.009 40.0371Z" fill="#FFFCFC"/>
<path d="M236.252 39.0068C237.572 39.0068 239.021 36.7852 240.147 34.3383H240.824C239.697 37.1072 237.636 40.2303 235.447 40.2303C234.191 40.2303 233.74 39.5219 233.74 38.556C233.74 37.9765 234.062 37.2682 234.32 36.5598L236.155 31.5049H235.865C234.288 34.9178 231.004 40.3268 228.396 40.3268C226.56 40.3268 225.917 38.7814 225.917 36.592C225.917 31.0864 231.036 22.683 235.318 22.683C237.218 22.683 238.119 24.0675 237.958 26.1925H238.055L239.021 23.5201C239.729 23.5201 240.405 23.1016 240.759 22.5542L241.113 22.7152L236.059 36.592C235.898 37.075 235.608 37.7833 235.608 38.2019C235.608 38.6848 235.737 39.0068 236.252 39.0068ZM228.943 38.7814C231.068 38.7814 234.899 33.1148 236.187 29.5409C236.541 28.575 236.928 27.416 236.928 26.1281C236.928 24.7758 236.509 23.8743 235.35 23.8743C232.034 23.8743 227.816 31.3762 227.816 36.3666C227.816 37.9121 228.106 38.7814 228.943 38.7814Z" fill="#FFFCFC"/>
<path d="M243.534 40.0371H241.699L246.239 26.8364C246.528 25.9993 246.883 24.9368 246.883 24.5504C246.883 24.0675 246.689 23.9387 246.4 23.9387C245.305 23.9387 243.663 26.0315 242.568 27.9633H241.892C243.212 25.4198 245.402 22.7474 247.43 22.7474C248.267 22.7474 248.686 23.4236 248.686 24.1963C248.686 24.8724 248.364 25.7417 247.977 26.8364L245.852 32.6962H246.11C249.652 25.2266 252.163 22.683 254.288 22.683C255.479 22.683 256.123 23.4558 256.123 24.6792C256.123 27.3194 253.419 32.4386 251.712 36.592C251.551 37.075 251.261 37.7833 251.261 38.2019C251.261 38.6848 251.39 39.0068 251.905 39.0068C253.225 39.0068 254.706 36.7852 255.801 34.3383H256.477C255.35 37.1072 253.322 40.2303 251.133 40.2303C249.877 40.2303 249.426 39.5219 249.426 38.556C249.426 37.9765 249.716 37.2682 250.006 36.5598C251.809 31.9235 254.127 27.094 254.127 25.3554C254.127 24.5504 253.902 24.1641 253.354 24.1641C251.841 24.1641 248.267 28.0277 243.534 40.0371Z" fill="#FFFCFC"/>
<path d="M263.724 23.9387L259.442 36.3666C259.281 36.914 259.055 37.6223 259.055 38.1053C259.055 38.6204 259.184 38.9424 259.731 38.9424C261.245 38.9424 263.176 36.5276 264.464 33.7909H265.173C263.853 36.9784 261.373 40.2303 258.862 40.2303C257.639 40.2303 257.188 39.5541 257.188 38.5238C257.188 37.9121 257.413 37.1072 257.639 36.431L261.921 23.9387H259.377L259.635 23.327C262.404 23.2626 263.402 21.9425 264.69 19.1736H265.43L263.981 23.1016H267.201L266.943 23.9387H263.724Z" fill="#FFFCFC"/>
<path d="M269.285 40.4556C266.742 40.4556 265.035 38.7492 265.035 37.1716C265.035 36.4632 265.454 36.0769 266.001 36.0769C266.516 36.0769 266.645 36.4632 266.903 37.2682C267.353 38.6526 268.126 39.5219 269.704 39.5219C271.442 39.5219 272.312 38.2019 272.312 36.4632C272.312 35.3363 271.893 34.4348 271.217 33.3402L270.251 31.6659C269.06 29.7019 268.48 28.6072 268.48 27.1906C268.48 24.5182 270.638 22.6186 273.278 22.6186C275.467 22.6186 276.723 24.1319 276.723 25.1622C276.723 25.8383 276.24 26.2247 275.757 26.2247C275.242 26.2247 275.048 25.7739 274.855 25.1944C274.501 24.2607 274.018 23.5201 272.666 23.5201C271.153 23.5201 270.122 24.5182 270.122 26.2891C270.122 27.3516 270.573 28.5106 271.314 29.7341L272.247 31.3761C273.471 33.5011 273.954 34.3061 273.954 35.6583C273.954 38.4916 271.958 40.4556 269.285 40.4556Z" fill="#FFFCFC"/>
<path d="M10.0742 39.7861H0L7.60724e-05 15.001H6.0777V18.4499C6.0777 19.9825 7.32017 21.225 8.85283 21.225C10.3855 21.225 11.628 19.9825 11.628 18.4499V15.001H20.2979V18.2166C20.2979 19.8781 21.6448 21.225 23.3063 21.225C24.9678 21.225 26.3147 19.8781 26.3147 18.2166V15.001H32.2301L32.23 39.7861H21.6782L21.6783 32.3507C21.6783 29.1463 19.0806 26.5487 15.8763 26.5487C12.6719 26.5487 10.0743 29.1463 10.0743 32.3506L10.0742 39.7861Z" fill="#FFFCFC"/>
<path fill-rule="evenodd" clip-rule="evenodd" d="M14.6543 17.1241L14.6543 0.228282C18.1387 -0.139667 20.1125 1.35756 22.0515 2.82833C24.3812 4.5955 26.6606 6.32448 31.4493 4.73414C28.5334 11.0127 21.1003 10.2021 18.377 9.66625C18.3766 9.66691 18.3762 9.66757 18.3758 9.66823C17.5011 9.56731 17.3385 10.3831 17.3666 10.8036L17.3572 10.8072V17.1241H14.6543Z" fill="#FFFCFC"/>
<path d="M284.64 5.74316C284.64 5.74316 285.132 10.337 287.049 12.254C288.966 14.1711 293.56 14.6632 293.56 14.6632C293.56 14.6632 288.966 15.1554 287.049 17.0725C285.132 18.9895 284.64 23.5833 284.64 23.5833C284.64 23.5833 284.148 18.9895 282.231 17.0725C280.314 15.1554 275.72 14.6632 275.72 14.6632C275.72 14.6632 280.314 14.1711 282.231 12.254C284.148 10.337 284.64 5.74316 284.64 5.74316Z" fill="#9FA9FF"/>
</svg>
