<svg width="305" height="49" viewBox="0 0 305 49" fill="none" xmlns="http://www.w3.org/2000/svg">
<path d="M40.4425 15.7965H50.2125C52.5853 15.7965 54.4811 16.378 55.9001 17.5411C57.3423 18.681 58.0634 20.2512 58.0634 22.2517C58.0634 23.7637 57.668 24.9849 56.8771 25.9154C56.1094 26.8226 54.9812 27.4042 53.4925 27.6601C53.3064 27.7066 53.1784 27.7531 53.1086 27.7996C53.0389 27.8462 53.004 27.9159 53.004 28.009C53.004 28.102 53.0389 28.1718 53.1086 28.2183C53.1784 28.2649 53.3064 28.3114 53.4925 28.3579C56.6561 28.9627 58.2379 30.8818 58.2379 34.1152C58.2379 36.2786 57.5168 37.9535 56.0745 39.1398C54.6323 40.3262 52.6783 40.9193 50.2125 40.9193H40.4425V15.7965ZM49.8636 26.6133C51.3989 26.6133 52.562 26.3109 53.3529 25.7061C54.1671 25.1013 54.5741 24.1243 54.5741 22.7751C54.5741 21.4259 54.1671 20.4489 53.3529 19.8441C52.562 19.2393 51.3989 18.9369 49.8636 18.9369H43.9318V26.6133H49.8636ZM49.8636 37.779C51.4919 37.779 52.7132 37.4766 53.5274 36.8718C54.3415 36.2437 54.7486 35.2085 54.7486 33.7663C54.7486 32.3241 54.3415 31.3006 53.5274 30.6957C52.7132 30.0677 51.4919 29.7536 49.8636 29.7536H43.9318V37.779H49.8636ZM78.1186 40.9193H74.9783V37.9883C74.9783 37.8488 74.9085 37.779 74.7689 37.779C74.6293 37.779 74.5247 37.8488 74.4549 37.9883C73.8966 39.1049 73.1406 39.9656 72.1869 40.5704C71.2564 41.152 69.977 41.4427 68.3486 41.4427C66.162 41.4427 64.4523 40.8147 63.2194 39.5585C61.9865 38.2791 61.3701 36.4647 61.3701 34.1152V22.7751H64.5104V33.5918C64.5104 35.2434 64.9291 36.4996 65.7666 37.3603C66.604 38.221 67.8136 38.6513 69.3954 38.6513C71.1866 38.6513 72.559 38.1163 73.5128 37.0462C74.4898 35.9529 74.9783 34.3362 74.9783 32.1961V22.7751H78.1186V40.9193ZM85.4543 22.7751V40.9193H82.314V22.7751H85.4543ZM86.1522 15.7965V19.9836H81.6161V15.7965H86.1522ZM88.611 31.8472C88.611 29.8002 89.0181 28.0555 89.8323 26.6133C90.6697 25.1478 91.7397 24.0545 93.0424 23.3334C94.3683 22.6122 95.7873 22.2517 97.2993 22.2517C100.277 22.2517 102.37 23.438 103.58 25.8107C103.673 25.9968 103.789 26.0899 103.929 26.0899C104.069 26.0899 104.138 26.0201 104.138 25.8805V15.7965H107.279V40.9193H104.138V37.8139C104.138 37.6743 104.069 37.6045 103.929 37.6045C103.789 37.6045 103.673 37.6976 103.58 37.8837C102.37 40.2564 100.277 41.4427 97.2993 41.4427C95.7873 41.4427 94.3683 41.0822 93.0424 40.3611C91.7397 39.6399 90.6697 38.5583 89.8323 37.116C89.0181 35.6505 88.611 33.8943 88.611 31.8472ZM91.7514 31.8472C91.7514 33.9873 92.3213 35.6622 93.4611 36.8718C94.6242 38.0581 96.1479 38.6513 98.0321 38.6513C99.9163 38.6513 101.428 38.0581 102.568 36.8718C103.731 35.6622 104.313 33.9873 104.313 31.8472C104.313 29.7071 103.731 28.0439 102.568 26.8575C101.428 25.6479 99.9163 25.0431 98.0321 25.0431C96.1479 25.0431 94.6242 25.6479 93.4611 26.8575C92.3213 28.0439 91.7514 29.7071 91.7514 31.8472ZM114.59 15.7965V40.9193H111.449V15.7965H114.59ZM117.572 28.3579C117.572 25.7526 118.095 23.4613 119.142 21.484C120.212 19.5068 121.724 17.9831 123.678 16.9131C125.632 15.8198 127.9 15.2731 130.482 15.2731C132.855 15.2731 134.867 15.75 136.519 16.7037C138.194 17.6342 139.45 18.8554 140.287 20.3675C141.125 21.8795 141.578 23.4962 141.648 25.2176H138.159C137.973 23.1473 137.24 21.4957 135.961 20.2628C134.681 19.0299 132.797 18.4135 130.308 18.4135C128.47 18.4135 126.854 18.8322 125.458 19.6696C124.062 20.4838 122.98 21.6469 122.213 23.1589C121.445 24.6709 121.061 26.4039 121.061 28.3579C121.061 30.3352 121.434 32.0798 122.178 33.5918C122.946 35.0806 124.051 36.2437 125.493 37.0811C126.935 37.8953 128.656 38.3024 130.657 38.3024C133.006 38.3024 134.751 37.779 135.891 36.7322C137.031 35.6854 137.601 34.2897 137.601 32.5451H128.389V29.4047H141.09V31.8821C141.09 34.8596 140.148 37.1974 138.264 38.8956C136.403 40.5937 133.809 41.4427 130.482 41.4427C127.854 41.4427 125.563 40.9077 123.609 39.8377C121.655 38.7444 120.154 37.2091 119.107 35.2318C118.084 33.2545 117.572 30.9633 117.572 28.3579ZM161.18 40.9193H158.04V37.9883C158.04 37.8488 157.97 37.779 157.83 37.779C157.691 37.779 157.586 37.8488 157.516 37.9883C156.958 39.1049 156.202 39.9656 155.248 40.5704C154.318 41.152 153.038 41.4427 151.41 41.4427C149.223 41.4427 147.514 40.8147 146.281 39.5585C145.048 38.2791 144.431 36.4647 144.431 34.1152V22.7751H147.572V33.5918C147.572 35.2434 147.99 36.4996 148.828 37.3603C149.665 38.221 150.875 38.6513 152.457 38.6513C154.248 38.6513 155.62 38.1163 156.574 37.0462C157.551 35.9529 158.04 34.3362 158.04 32.1961V22.7751H161.18V40.9193ZM168.516 22.7751V40.9193H165.375V22.7751H168.516ZM169.213 15.7965V19.9836H164.677V15.7965H169.213ZM171.672 31.8472C171.672 29.8002 172.079 28.0555 172.894 26.6133C173.731 25.1478 174.801 24.0545 176.104 23.3334C177.43 22.6122 178.849 22.2517 180.361 22.2517C183.338 22.2517 185.432 23.438 186.641 25.8107C186.734 25.9968 186.851 26.0899 186.99 26.0899C187.13 26.0899 187.2 26.0201 187.2 25.8805V15.7965H190.34V40.9193H187.2V37.8139C187.2 37.6743 187.13 37.6045 186.99 37.6045C186.851 37.6045 186.734 37.6976 186.641 37.8837C185.432 40.2564 183.338 41.4427 180.361 41.4427C178.849 41.4427 177.43 41.0822 176.104 40.3611C174.801 39.6399 173.731 38.5583 172.894 37.116C172.079 35.6505 171.672 33.8943 171.672 31.8472ZM174.813 31.8472C174.813 33.9873 175.383 35.6622 176.522 36.8718C177.686 38.0581 179.209 38.6513 181.093 38.6513C182.978 38.6513 184.49 38.0581 185.629 36.8718C186.793 35.6622 187.374 33.9873 187.374 31.8472C187.374 29.7071 186.793 28.0439 185.629 26.8575C184.49 25.6479 182.978 25.0431 181.093 25.0431C179.209 25.0431 177.686 25.6479 176.522 26.8575C175.383 28.0439 174.813 29.7071 174.813 31.8472ZM197.651 15.7965V40.9193H194.511V15.7965H197.651ZM221.605 23.2815C222.451 23.2815 222.874 23.5418 222.874 24.0299C222.874 24.453 222.548 25.0388 221.767 25.0388C221.084 25.0388 220.563 24.6157 219.717 24.6157C219.424 24.6157 219.164 24.6482 218.871 24.811C219.392 25.592 219.652 26.6333 219.652 27.8048C219.652 31.775 216.756 35.68 213.469 36.0706C210.898 36.4285 209.173 36.9817 209.173 37.958C209.173 38.7065 209.954 39.2597 212.07 40.0407L215.291 41.2773C217.667 42.1885 218.578 42.937 218.578 44.3363C218.578 46.8746 215.356 48.4691 211.028 48.4691C206.31 48.4691 203.088 46.7119 203.088 44.5315C203.088 42.2861 205.887 41.3424 209.694 40.9193C208.36 40.301 207.253 39.5851 207.253 38.5763C207.253 36.9167 209.662 36.2007 211.679 35.9078C210.085 35.3221 209.141 33.6624 209.141 31.5797C209.141 27.4143 212.46 23.314 216.007 23.314C217.049 23.314 217.862 23.672 218.481 24.3228C219.489 23.6394 220.726 23.2815 221.605 23.2815ZM212.948 35.257C215.714 35.257 217.895 30.8638 217.895 27.2842C217.895 25.3967 217.276 24.1601 215.812 24.1601C213.046 24.1601 210.866 28.5859 210.866 32.133C210.866 33.9879 211.484 35.257 212.948 35.257ZM214.608 42.7742L210.931 41.4075L210.703 41.3098C207.026 41.798 204.78 42.7092 204.78 44.3688C204.78 46.3864 208.067 47.3952 211.451 47.3952C215.129 47.3952 216.788 46.2563 216.788 44.8244C216.788 43.8807 215.877 43.2298 214.608 42.7742ZM223.28 40.9193H221.392L225.785 27.577C226.046 26.7309 226.371 25.6571 226.371 25.2665C226.371 24.7784 226.176 24.6482 225.883 24.6482C224.777 24.6482 223.117 26.7635 222.011 28.716H221.327C222.661 26.1452 224.874 23.4442 226.924 23.4442C227.771 23.4442 228.194 24.1276 228.194 24.9086C228.194 25.592 227.868 26.4706 227.478 27.577L225.33 33.4997H225.558C228.324 25.6571 231.318 23.3791 233.661 23.3791C234.344 23.3791 234.702 23.672 234.702 24.1927C234.702 24.9086 234.149 25.6245 233.465 25.6245C232.912 25.6245 232.619 25.2991 231.968 25.2991C230.211 25.2991 227.282 28.8787 223.28 40.9193ZM241.718 39.878C243.053 39.878 244.517 37.6326 245.656 35.1594H246.339C245.2 37.958 243.118 41.1146 240.905 41.1146C239.636 41.1146 239.18 40.3987 239.18 39.4224C239.18 38.8366 239.506 38.1207 239.766 37.4048L241.621 32.2957H241.328C239.733 35.7451 236.414 41.2122 233.778 41.2122C231.923 41.2122 231.272 39.6502 231.272 37.4373C231.272 31.8726 236.447 23.3791 240.775 23.3791C242.695 23.3791 243.606 24.7784 243.443 26.9262H243.541L244.517 24.2252C245.233 24.2252 245.916 23.8022 246.274 23.2489L246.632 23.4116L241.523 37.4373C241.36 37.9255 241.068 38.6414 241.068 39.0644C241.068 39.5526 241.198 39.878 241.718 39.878ZM234.331 39.6502C236.479 39.6502 240.352 33.9228 241.653 30.3106C242.011 29.3343 242.402 28.1628 242.402 26.8611C242.402 25.4943 241.979 24.5832 240.807 24.5832C237.455 24.5832 233.192 32.1655 233.192 37.2095C233.192 38.7716 233.485 39.6502 234.331 39.6502ZM249.079 40.9193H247.224L251.813 27.577C252.106 26.7309 252.463 25.6571 252.463 25.2665C252.463 24.7784 252.268 24.6482 251.975 24.6482C250.869 24.6482 249.209 26.7635 248.103 28.716H247.419C248.754 26.1452 250.967 23.4442 253.017 23.4442C253.863 23.4442 254.286 24.1276 254.286 24.9086C254.286 25.592 253.96 26.4706 253.57 27.577L251.422 33.4997H251.682C255.262 25.9499 257.8 23.3791 259.948 23.3791C261.152 23.3791 261.803 24.1601 261.803 25.3967C261.803 28.0652 259.07 33.2394 257.345 37.4373C257.182 37.9255 256.889 38.6414 256.889 39.0644C256.889 39.5526 257.019 39.878 257.54 39.878C258.874 39.878 260.371 37.6326 261.478 35.1594H262.161C261.022 37.958 258.972 41.1146 256.759 41.1146C255.49 41.1146 255.034 40.3987 255.034 39.4224C255.034 38.8366 255.327 38.1207 255.62 37.4048C257.442 32.7187 259.785 27.8374 259.785 26.0801C259.785 25.2665 259.558 24.876 259.004 24.876C257.475 24.876 253.863 28.7811 249.079 40.9193ZM269.485 24.6482L265.157 37.2095C264.995 37.7627 264.767 38.4787 264.767 38.9668C264.767 39.4875 264.897 39.8129 265.45 39.8129C266.98 39.8129 268.932 37.3722 270.234 34.6062H270.95C269.615 37.8278 267.11 41.1146 264.571 41.1146C263.335 41.1146 262.879 40.4312 262.879 39.3899C262.879 38.7716 263.107 37.958 263.335 37.2746L267.663 24.6482H265.092L265.352 24.0299C268.151 23.9649 269.16 22.6306 270.462 19.832H271.21L269.746 23.8022H273L272.74 24.6482H269.485ZM275.106 41.3424C272.536 41.3424 270.811 39.6177 270.811 38.0231C270.811 37.3072 271.234 36.9167 271.787 36.9167C272.308 36.9167 272.438 37.3072 272.698 38.1207C273.154 39.52 273.935 40.3987 275.53 40.3987C277.287 40.3987 278.165 39.0644 278.165 37.3072C278.165 36.1682 277.742 35.257 277.059 34.1506L276.083 32.4584C274.879 30.4733 274.293 29.3669 274.293 27.935C274.293 25.234 276.473 23.314 279.142 23.314C281.355 23.314 282.624 24.8435 282.624 25.8849C282.624 26.5682 282.136 26.9587 281.647 26.9587C281.127 26.9587 280.932 26.5032 280.736 25.9174C280.378 24.9737 279.89 24.2252 278.523 24.2252C276.994 24.2252 275.953 25.234 275.953 27.0238C275.953 28.0977 276.408 29.2692 277.157 30.5058L278.1 32.1655C279.337 34.3133 279.825 35.1268 279.825 36.4936C279.825 39.3573 277.807 41.3424 275.106 41.3424Z" fill="#231E2B"/>
<path d="M11.134 40.6656H0.95166L0.951737 15.6145H7.09457V19.1004C7.09457 20.6495 8.35037 21.9053 9.89948 21.9053C11.4486 21.9053 12.7044 20.6495 12.7044 19.1004V15.6145H21.4673V18.8646C21.4673 20.544 22.8287 21.9053 24.508 21.9053C26.1874 21.9053 27.5487 20.544 27.5487 18.8646V15.6145H33.5275L33.5275 40.6656H22.8625L22.8625 33.1504C22.8625 29.9117 20.237 27.2861 16.9983 27.2861C13.7595 27.2861 11.134 29.9116 11.134 33.1504L11.134 40.6656Z" fill="#231E2B"/>
<path fill-rule="evenodd" clip-rule="evenodd" d="M15.7602 17.7605L15.7602 0.683431C19.2819 0.311534 21.277 1.82482 23.2367 3.31138C25.5915 5.0975 27.8953 6.84504 32.7354 5.23763C29.7877 11.5846 22.273 10.764 19.5216 10.2224C19.5212 10.2231 19.5207 10.2238 19.5203 10.2245C18.6362 10.1225 18.4719 10.947 18.5003 11.372L18.4921 11.3751V17.7605H15.7602Z" fill="#231E2B"/>
<path d="M291.353 0.979828C291.353 0.979828 292.076 7.73171 294.894 10.5494C297.712 13.3671 304.464 14.0904 304.464 14.0904C304.464 14.0904 297.712 14.8138 294.894 17.6315C292.076 20.4492 291.353 27.2011 291.353 27.2011C291.353 27.2011 290.63 20.4492 287.812 17.6315C284.994 14.8138 278.242 14.0904 278.242 14.0904C278.242 14.0904 284.994 13.3671 287.812 10.5494C290.63 7.73171 291.353 0.979828 291.353 0.979828Z" fill="#9FA9FF"/>
</svg>
