<svg width="155" height="37" viewBox="0 0 155 37" fill="none" xmlns="http://www.w3.org/2000/svg">
<path d="M27.2595 11.8685H34.9485C36.8341 11.8685 38.3353 12.3445 39.452 13.2965C40.5687 14.2301 41.1271 15.5391 41.1271 17.2233C41.1271 18.9808 40.3216 20.3172 38.7106 21.2326C38.6007 21.2875 38.5275 21.3424 38.4909 21.3973C38.4543 21.434 38.436 21.498 38.436 21.5896C38.436 21.7177 38.5092 21.8092 38.6556 21.8642C40.3948 22.5598 41.2644 23.9878 41.2644 26.148C41.2644 27.9055 40.6969 29.2602 39.5618 30.2122C38.4451 31.1642 36.9073 31.6401 34.9485 31.6401H27.2595V11.8685ZM34.6739 20.3813C35.8821 20.3813 36.7975 20.1433 37.4199 19.6673C38.0607 19.1913 38.381 18.4224 38.381 17.3606C38.381 16.2988 38.0607 15.5299 37.4199 15.0539C36.7975 14.578 35.8821 14.34 34.6739 14.34H30.0056V20.3813H34.6739ZM34.6739 29.1687C35.9554 29.1687 36.9165 28.9307 37.5572 28.4547C38.198 27.9604 38.5183 27.1458 38.5183 26.0107C38.5183 24.8757 38.198 24.0702 37.5572 23.5942C36.9165 23.0999 35.9554 22.8527 34.6739 22.8527H30.0056V29.1687H34.6739ZM57.0478 31.6401H54.5764V30.0749C54.5764 29.9467 54.5123 29.8827 54.3841 29.8827C54.3292 29.8827 54.2743 29.9101 54.2194 29.965C54.1827 30.0017 54.137 30.0474 54.0821 30.1023C53.0569 31.4021 51.574 32.052 49.6334 32.052C47.8394 32.052 46.4297 31.5486 45.4045 30.5417C44.3793 29.5348 43.8667 28.116 43.8667 26.2853V17.3606H46.3382V25.8734C46.3382 27.1732 46.6677 28.1618 47.3268 28.8392C47.9858 29.5165 48.9378 29.8552 50.1827 29.8552C51.5923 29.8552 52.6724 29.4341 53.423 28.592C54.1919 27.7316 54.5764 26.4592 54.5764 24.775V17.3606H57.0478V31.6401ZM62.9583 17.3606V31.6401H60.4868V17.3606H62.9583ZM63.5075 11.8685V15.1638H59.9376V11.8685H63.5075ZM65.5799 24.5004C65.5799 22.8527 65.9094 21.4614 66.5685 20.3264C67.2458 19.1913 68.1154 18.3492 69.1772 17.8C70.239 17.2325 71.3741 16.9487 72.5823 16.9487C74.6144 16.9487 76.1888 17.6169 77.3056 18.9533C77.3971 19.0815 77.4978 19.1456 77.6076 19.1456C77.7358 19.1456 77.7999 19.0723 77.7999 18.9259V11.8685H80.2713V31.6401H77.7999V30.0749C77.7999 29.9284 77.7358 29.8552 77.6076 29.8552C77.4978 29.8552 77.3971 29.9193 77.3056 30.0474C76.1888 31.3838 74.6144 32.052 72.5823 32.052C71.3741 32.052 70.239 31.7774 69.1772 31.2282C68.1154 30.6607 67.2458 29.8094 66.5685 28.6744C65.9094 27.5394 65.5799 26.148 65.5799 24.5004ZM68.0513 24.5004C68.0513 26.1846 68.4999 27.5027 69.3969 28.4547C70.3123 29.3884 71.5114 29.8552 72.9943 29.8552C74.4771 29.8552 75.6671 29.3884 76.5641 28.4547C77.4795 27.5027 77.9372 26.1846 77.9372 24.5004C77.9372 22.8161 77.4795 21.5072 76.5641 20.5735C75.6671 19.6216 74.4771 19.1456 72.9943 19.1456C71.5114 19.1456 70.3123 19.6216 69.3969 20.5735C68.4999 21.5072 68.0513 22.8161 68.0513 24.5004ZM86.1625 11.8685V31.6401H83.691V11.8685H86.1625ZM88.6468 21.7543C88.6468 19.7039 89.0587 17.9007 89.8825 16.3446C90.7246 14.7885 91.9146 13.5894 93.4524 12.7472C94.9902 11.8868 96.7751 11.4566 98.8072 11.4566C100.675 11.4566 102.258 11.8319 103.558 12.5825C104.876 13.3148 105.865 14.2759 106.524 15.4658C107.183 16.6558 107.54 17.9281 107.595 19.2829H104.849C104.702 17.6535 104.125 16.3537 103.119 15.3835C102.112 14.4132 100.629 13.9281 98.6699 13.9281C97.2236 13.9281 95.9513 14.2576 94.8529 14.9166C93.7545 15.5574 92.9032 16.4727 92.299 17.6627C91.6949 18.8527 91.3928 20.2165 91.3928 21.7543C91.3928 23.3104 91.6858 24.6835 92.2716 25.8734C92.8757 27.0451 93.7453 27.9604 94.8803 28.6195C96.0154 29.2602 97.3701 29.5806 98.9445 29.5806C100.794 29.5806 102.167 29.1687 103.064 28.3449C103.961 27.521 104.409 26.4226 104.409 25.0496H97.1596V22.5781H107.155V24.5278C107.155 26.8711 106.414 28.711 104.931 30.0474C103.466 31.3838 101.425 32.052 98.8072 32.052C96.7385 32.052 94.9353 31.631 93.3975 30.7889C91.8597 29.9284 90.6789 28.7202 89.8551 27.1641C89.0495 25.608 88.6468 23.8047 88.6468 21.7543ZM123.103 31.6401H120.632V30.0749C120.632 29.9467 120.568 29.8827 120.44 29.8827C120.385 29.8827 120.33 29.9101 120.275 29.965C120.238 30.0017 120.193 30.0474 120.138 30.1023C119.112 31.4021 117.63 32.052 115.689 32.052C113.895 32.052 112.485 31.5486 111.46 30.5417C110.435 29.5348 109.922 28.116 109.922 26.2853V17.3606H112.394V25.8734C112.394 27.1732 112.723 28.1618 113.382 28.8392C114.041 29.5165 114.993 29.8552 116.238 29.8552C117.648 29.8552 118.728 29.4341 119.479 28.592C120.247 27.7316 120.632 26.4592 120.632 24.775V17.3606H123.103V31.6401ZM129.014 17.3606V31.6401H126.542V17.3606H129.014ZM129.563 11.8685V15.1638H125.993V11.8685H129.563ZM131.635 24.5004C131.635 22.8527 131.965 21.4614 132.624 20.3264C133.301 19.1913 134.171 18.3492 135.233 17.8C136.295 17.2325 137.43 16.9487 138.638 16.9487C140.67 16.9487 142.244 17.6169 143.361 18.9533C143.453 19.0815 143.553 19.1456 143.663 19.1456C143.791 19.1456 143.855 19.0723 143.855 18.9259V11.8685H146.327V31.6401H143.855V30.0749C143.855 29.9284 143.791 29.8552 143.663 29.8552C143.553 29.8552 143.453 29.9193 143.361 30.0474C142.244 31.3838 140.67 32.052 138.638 32.052C137.43 32.052 136.295 31.7774 135.233 31.2282C134.171 30.6607 133.301 29.8094 132.624 28.6744C131.965 27.5394 131.635 26.148 131.635 24.5004ZM134.107 24.5004C134.107 26.1846 134.555 27.5027 135.453 28.4547C136.368 29.3884 137.567 29.8552 139.05 29.8552C140.533 29.8552 141.723 29.3884 142.62 28.4547C143.535 27.5027 143.993 26.1846 143.993 24.5004C143.993 22.8161 143.535 21.5072 142.62 20.5735C141.723 19.6216 140.533 19.1456 139.05 19.1456C137.567 19.1456 136.368 19.6216 135.453 20.5735C134.555 21.5072 134.107 22.8161 134.107 24.5004ZM152.218 11.8685V31.6401H149.747V11.8685H152.218Z" fill="#FFFCFC"/>
<path fill-rule="evenodd" clip-rule="evenodd" d="M11.165 7.6233V14.5947H12.9157V18.6246H17.248V14.5947H20.2546V22.6544L15.526 31.5174L10.1273 31.4359L4.72864 31.5174L0 22.6544V14.5947H2.99299V18.6246H7.33896V14.5947H9.26912V0.947963C9.26912 0.424417 9.69354 0 10.2171 0C10.5948 0 10.9209 0.220863 11.0732 0.540475C11.5524 0.724161 12.0349 1.20942 12.5339 1.71114C13.1266 2.30713 13.7424 2.92634 14.4029 3.09083C15.0698 3.25693 15.5643 3.07933 16.1213 2.87926C16.7057 2.66936 17.359 2.43473 18.3525 2.54625C19.0976 2.63391 19.4926 3.12046 19.9343 3.66451C20.5216 4.38786 21.1914 5.21287 22.8762 5.33719L22.8655 5.3447C21.7868 6.10646 20.313 7.14723 18.0245 6.94369C17.3089 6.88194 16.8046 6.6512 16.3212 6.42998C15.6322 6.1147 14.9854 5.81874 13.8289 6.05876C12.5771 6.30988 11.9447 6.90249 11.4637 7.35314C11.3585 7.45166 11.2606 7.5434 11.165 7.6233Z" fill="#FFFCFC"/>
</svg>
